<svg width="35" height="30" viewBox="0 0 35 30" fill="none" xmlns="http://www.w3.org/2000/svg">
<path d="M1.25 5.5102H33.75C34.4404 5.5102 35 4.96202 35 4.28571V1.22449C35 0.548189 34.4404 0 33.75 0H1.25C0.559609 0 0 0.548189 0 1.22449V4.28571C0 4.96202 0.559609 5.5102 1.25 5.5102ZM1.25 17.7551H33.75C34.4404 17.7551 35 17.2069 35 16.5306V13.4694C35 12.7931 34.4404 12.2449 33.75 12.2449H1.25C0.559609 12.2449 0 12.7931 0 13.4694V16.5306C0 17.2069 0.559609 17.7551 1.25 17.7551ZM1.25 30H33.75C34.4404 30 35 29.4518 35 28.7755V25.7143C35 25.038 34.4404 24.4898 33.75 24.4898H1.25C0.559609 24.4898 0 25.038 0 25.7143V28.7755C0 29.4518 0.559609 30 1.25 30Z" fill="white"/>
</svg>
