<svg width="19" height="25" viewBox="0 0 19 25" fill="none" xmlns="http://www.w3.org/2000/svg">
<path d="M9.96094 0C4.95117 0 0 3.42611 0 8.97101C0 12.4973 1.93359 14.5009 3.10547 14.5009C3.58887 14.5009 3.86719 13.1184 3.86719 12.7277C3.86719 12.2619 2.70996 11.2701 2.70996 9.33165C2.70996 5.30447 5.69824 2.44937 9.56543 2.44937C12.8906 2.44937 15.3516 4.38783 15.3516 7.94919C15.3516 10.6089 14.3115 15.5978 10.9424 15.5978C9.72656 15.5978 8.68652 14.6962 8.68652 13.4039C8.68652 11.5105 9.97559 9.67727 9.97559 7.72378C9.97559 4.40787 5.39062 5.00894 5.39062 9.01609C5.39062 9.85759 5.49316 10.7893 5.85938 11.5556C5.18555 14.5309 3.80859 18.9638 3.80859 22.0293C3.80859 22.976 3.94043 23.9077 4.02832 24.8544C4.19434 25.0447 4.11133 25.0247 4.36523 24.9295C6.82617 21.4733 6.73828 20.7971 7.85156 16.274C8.45215 17.4461 10.0049 18.0773 11.2354 18.0773C16.4209 18.0773 18.75 12.893 18.75 8.21967C18.75 3.24579 14.5605 0 9.96094 0Z" fill="white"/>
</svg>
