<svg width="70" height="70" viewBox="0 0 70 70" fill="none" xmlns="http://www.w3.org/2000/svg">
<circle cx="35" cy="35" r="33.5" stroke="white" stroke-width="3"/>
<path d="M33.8695 50.3544C25.5452 37.1894 24 35.8383 24 31C24 24.3726 28.9248 19 35 19C41.0752 19 46 24.3726 46 31C46 35.8383 44.4548 37.1894 36.1305 50.3544C35.5842 51.2152 34.4157 51.2152 33.8695 50.3544ZM35 36C37.5313 36 39.5833 33.7614 39.5833 31C39.5833 28.2386 37.5313 26 35 26C32.4687 26 30.4167 28.2386 30.4167 31C30.4167 33.7614 32.4687 36 35 36Z" fill="white"/>
</svg>
