<svg width="25" height="18" viewBox="0 0 25 18" fill="none" xmlns="http://www.w3.org/2000/svg">
<path d="M24.4776 2.73816C24.1901 1.66036 23.3429 0.811517 22.2673 0.523451C20.3177 0 12.5 0 12.5 0C12.5 0 4.68232 0 2.73266 0.523451C1.65706 0.811563 0.80992 1.66036 0.522399 2.73816C0 4.69173 -1.78115e-08 8.76768 -1.78115e-08 8.76768C-1.78115e-08 8.76768 0 12.8436 0.522399 14.7972C0.80992 15.875 1.65706 16.6885 2.73266 16.9766C4.68232 17.5 12.5 17.5 12.5 17.5C12.5 17.5 20.3177 17.5 22.2673 16.9766C23.3429 16.6885 24.1901 15.875 24.4776 14.7972C25 12.8436 25 8.76768 25 8.76768C25 8.76768 25 4.69173 24.4776 2.73816ZM9.94316 12.4683V5.06702L16.4772 8.76777L9.94316 12.4683Z" fill="white"/>
</svg>
